<svg width="56" height="20" viewBox="0 0 56 20" fill="none" xmlns="http://www.w3.org/2000/svg">
<path d="M51.8513 18.7916L51.3263 16.1666H45.4603L44.527 18.773L39.8253 18.7823C42.8478 11.5194 45.0909 6.13951 46.5547 2.64262C46.9373 1.72796 47.6163 1.26129 48.6173 1.26829C49.3827 1.27451 50.6318 1.27529 52.3647 1.27062L56 18.7846L51.8513 18.7916ZM46.7787 12.571H50.561L49.1493 5.99095L46.7787 12.571ZM16.478 1.26596L21.2053 1.27062L13.8973 18.794L9.11167 18.7893C7.90825 14.1607 6.7198 9.52823 5.54633 4.89196C5.313 3.96796 4.851 3.32162 3.962 3.01596C3.16711 2.74373 1.84644 2.32296 0 1.75362V1.27062H7.553C8.85967 1.27062 9.62267 1.90296 9.86767 3.20029C10.115 4.50073 10.7372 7.8094 11.7343 13.1263L16.478 1.26596ZM27.7013 1.27062L23.9657 18.7916L19.4647 18.7846L23.1933 1.26596L27.7013 1.27062ZM36.8247 0.946289C38.171 0.946289 39.8673 1.36629 40.8427 1.75362L40.054 5.38429C39.172 5.02962 37.7207 4.55129 36.5003 4.56762C34.727 4.59796 33.6303 5.34229 33.6303 6.05629C33.6303 7.21829 35.5343 7.80395 37.4943 9.07329C39.7297 10.52 40.026 11.8196 39.998 13.2336C39.9677 16.162 37.4943 19.053 32.277 19.053C29.897 19.018 29.0383 18.8196 27.097 18.129L27.9183 14.3396C29.8947 15.1656 30.7323 15.4293 32.4217 15.4293C33.9687 15.4293 35.2963 14.804 35.308 13.7143C35.3173 12.9396 34.8413 12.5546 33.1053 11.598C31.3693 10.6413 28.9333 9.31362 28.966 6.64662C29.0057 3.23529 32.2373 0.946289 36.8247 0.946289Z" fill="#F9F9F9"/>
</svg>
